<?xml version="1.0" standalone="no"?>
<!DOCTYPE svg PUBLIC "-//W3C//DTD SVG 20010904//EN"
 "http://www.w3.org/TR/2001/REC-SVG-20010904/DTD/svg10.dtd">
<svg version="1.0" xmlns="http://www.w3.org/2000/svg"
 width="400.000000pt" height="400.000000pt" viewBox="0 0 400.000000 400.000000"
 preserveAspectRatio="xMidYMid meet">
<metadata>
Created by potrace 1.11, written by Peter Selinger 2001-2013
</metadata>
<g transform="translate(0.000000,400.000000) scale(0.100000,-0.100000)"
fill="#000000" stroke="none">
<path d="M1260 3185 l-735 -393 0 -792 0 -793 737 -393 737 -393 738 393 738
394 0 792 0 793 -730 389 c-401 215 -734 391 -740 393 -5 2 -341 -174 -745
-390z m570 -897 c45 -128 103 -291 127 -361 25 -70 47 -126 49 -125 2 2 59
163 128 358 l124 355 134 0 133 0 3 -497 2 -498 -105 0 -105 0 0 130 c0 71 5
231 11 356 6 124 9 227 7 229 -2 2 -62 -158 -133 -355 l-130 -360 -71 0 -71 0
-118 328 c-157 436 -146 416 -140 247 3 -77 8 -238 12 -357 l6 -218 -106 0
-107 0 0 493 c0 272 3 497 7 500 3 4 63 7 133 7 l127 0 83 -232z"/>
</g>
</svg>
